<?xml version="1.0" encoding="utf-8"?>
<!-- Generator: Adobe Illustrator 16.0.0, SVG Export Plug-In . SVG Version: 6.00 Build 0)  -->
<!DOCTYPE svg PUBLIC "-//W3C//DTD SVG 1.1//EN" "http://www.w3.org/Graphics/SVG/1.1/DTD/svg11.dtd">
<svg version="1.1" id="Layer_1" xmlns="http://www.w3.org/2000/svg" xmlns:xlink="http://www.w3.org/1999/xlink" x="0px" y="0px"
	 width="153.833px" height="48px" viewBox="0 0 153.833 48" enable-background="new 0 0 153.833 48" xml:space="preserve">
<g>
	<path fill="#21B5DD" d="M35.988,36.641V14.998c0-0.229,0.042-0.444,0.126-0.647c0.083-0.203,0.198-0.379,0.35-0.53
		c0.151-0.15,0.324-0.268,0.522-0.351c0.197-0.083,0.417-0.125,0.654-0.125c0.646,0,1.135,0.297,1.465,0.889l9.357,18.697
		l9.356-18.697c0.373-0.592,0.862-0.889,1.467-0.889c0.229,0,0.443,0.042,0.646,0.125c0.202,0.083,0.38,0.201,0.531,0.351
		c0.15,0.151,0.267,0.328,0.35,0.53c0.084,0.203,0.125,0.419,0.125,0.647v21.644c0,0.457-0.16,0.848-0.481,1.169
		c-0.323,0.324-0.714,0.484-1.17,0.484c-0.458,0-0.85-0.16-1.171-0.484c-0.32-0.321-0.483-0.712-0.483-1.169V22.014l-7.733,15.454
		c-0.323,0.55-0.803,0.826-1.436,0.826c-0.685,0-1.189-0.333-1.512-0.998l-7.656-15.282v14.627c0,0.457-0.162,0.848-0.484,1.169
		c-0.322,0.324-0.712,0.484-1.17,0.484c-0.457,0-0.846-0.16-1.169-0.484C36.149,37.489,35.988,37.098,35.988,36.641z"/>
	<path fill="#21B5DD" d="M73.159,38.294c-2.09,0-3.914-0.639-5.475-1.918v7.781c0,0.468-0.156,0.855-0.475,1.162
		c-0.317,0.307-0.705,0.46-1.161,0.46c-0.469,0-0.854-0.153-1.161-0.46c-0.309-0.307-0.462-0.694-0.462-1.162V29.562
		c0-2.412,0.853-4.469,2.559-6.175c1.703-1.705,3.764-2.558,6.175-2.558c2.392,0,4.448,0.853,6.174,2.558
		c0.853,0.842,1.491,1.78,1.92,2.814c0.427,1.035,0.639,2.155,0.639,3.36c0,2.433-0.853,4.492-2.559,6.175
		c-0.872,0.863-1.822,1.504-2.844,1.926C75.464,38.083,74.354,38.294,73.159,38.294z M67.685,29.562
		c0,0.749,0.145,1.456,0.431,2.121c0.284,0.666,0.672,1.246,1.161,1.739c0.488,0.495,1.064,0.887,1.73,1.178
		c0.665,0.291,1.384,0.436,2.152,0.436c0.758,0,1.472-0.145,2.138-0.436c0.664-0.291,1.243-0.687,1.737-1.186
		c0.493-0.499,0.884-1.078,1.169-1.738c0.285-0.661,0.43-1.365,0.43-2.114c0-0.748-0.145-1.452-0.43-2.112s-0.676-1.24-1.169-1.739
		c-0.494-0.499-1.073-0.894-1.737-1.186c-0.666-0.291-1.38-0.437-2.138-0.437c-0.769,0-1.487,0.146-2.152,0.437
		c-0.666,0.292-1.242,0.684-1.73,1.178c-0.489,0.493-0.877,1.073-1.161,1.738C67.829,28.106,67.685,28.813,67.685,29.562z"/>
	<path fill="#21B5DD" d="M88.742,17.726c0,0.531-0.188,0.982-0.563,1.356c-0.373,0.375-0.826,0.562-1.355,0.562
		c-0.531,0-0.982-0.187-1.357-0.562c-0.374-0.375-0.563-0.826-0.563-1.356c0-0.53,0.188-0.982,0.563-1.356
		c0.375-0.375,0.826-0.562,1.357-0.562c0.529,0,0.982,0.188,1.355,0.562C88.554,16.744,88.742,17.196,88.742,17.726z M85.202,36.657
		v-14.19c0-0.457,0.159-0.844,0.475-1.162c0.317-0.316,0.699-0.476,1.147-0.476c0.445,0,0.828,0.159,1.146,0.476
		c0.315,0.317,0.479,0.705,0.491,1.162v14.19c-0.012,0.458-0.176,0.845-0.491,1.162c-0.317,0.317-0.7,0.476-1.146,0.476
		c-0.448,0-0.83-0.158-1.147-0.476C85.361,37.501,85.202,37.115,85.202,36.657z"/>
	<path fill="#E76848" d="M95.651,22.435c1.382-1.07,3.011-1.606,4.881-1.606c1.091,0,2.129,0.214,3.112,0.64
		c0.979,0.427,1.846,1.006,2.595,1.739c0.748,0.733,1.34,1.596,1.777,2.588c0.436,0.993,0.655,2.051,0.655,3.173v7.688
		c0,0.458-0.158,0.845-0.477,1.162c-0.317,0.317-0.698,0.476-1.145,0.476c-0.459,0-0.845-0.158-1.163-0.476
		c-0.317-0.317-0.476-0.704-0.476-1.162v-7.688c0-0.666-0.129-1.294-0.39-1.887c-0.26-0.593-0.61-1.11-1.052-1.552
		c-0.442-0.441-0.96-0.792-1.552-1.052c-0.594-0.259-1.221-0.39-1.887-0.39c-0.677,0-1.309,0.128-1.896,0.383
		c-0.586,0.254-1.104,0.604-1.55,1.051c-0.449,0.448-0.799,0.967-1.055,1.56c-0.254,0.592-0.381,1.221-0.381,1.887v7.688
		c0,0.458-0.159,0.845-0.476,1.162c-0.316,0.317-0.699,0.476-1.146,0.476c-0.458,0-0.846-0.158-1.163-0.476
		c-0.315-0.317-0.475-0.704-0.475-1.162v-14.19c0-0.446,0.159-0.831,0.475-1.153c0.317-0.322,0.705-0.484,1.163-0.484
		c0.446,0,0.829,0.162,1.146,0.484S95.651,22.01,95.651,22.435z"/>
	<path fill="#E76848" d="M125.596,36.672V36.36c-0.782,0.624-1.627,1.102-2.543,1.435c-0.916,0.333-1.894,0.499-2.932,0.499
		c-2.411,0-4.472-0.853-6.176-2.557c-1.705-1.705-2.559-3.763-2.559-6.175c0-2.412,0.854-4.469,2.559-6.175
		c1.704-1.705,3.765-2.558,6.176-2.558c2.392,0,4.449,0.853,6.175,2.558c1.703,1.706,2.559,3.763,2.559,6.175v7.111
		c0,0.447-0.162,0.829-0.477,1.146c-0.318,0.317-0.7,0.476-1.147,0.476c-0.456,0-0.845-0.158-1.16-0.476
		C125.752,37.501,125.596,37.119,125.596,36.672z M120.121,24.088c-0.769,0-1.485,0.146-2.15,0.437
		c-0.666,0.292-1.245,0.684-1.732,1.178c-0.49,0.493-0.876,1.073-1.16,1.738c-0.287,0.666-0.432,1.373-0.432,2.121
		c0,0.749,0.145,1.456,0.432,2.121c0.284,0.666,0.67,1.246,1.16,1.739c0.487,0.495,1.066,0.887,1.732,1.178
		c0.665,0.291,1.382,0.436,2.15,0.436c0.758,0,1.472-0.145,2.137-0.436s1.245-0.687,1.739-1.186
		c0.492-0.499,0.881-1.078,1.166-1.738c0.287-0.661,0.433-1.365,0.433-2.114c0-0.748-0.146-1.452-0.433-2.112
		c-0.285-0.66-0.674-1.24-1.166-1.739c-0.494-0.499-1.074-0.894-1.739-1.186C121.593,24.233,120.879,24.088,120.121,24.088z"/>
	<path fill="#E76848" d="M135.098,22.763c1.55-1.289,3.374-1.934,5.475-1.934c2.389,0,4.448,0.853,6.174,2.558
		c0.853,0.842,1.491,1.78,1.918,2.814c0.426,1.035,0.64,2.155,0.64,3.36c0,2.433-0.854,4.492-2.558,6.175
		c-1.726,1.705-3.785,2.557-6.174,2.557c-2.412,0-4.471-0.853-6.177-2.557c-1.705-1.705-2.557-3.763-2.557-6.175V14.966
		c0-0.467,0.153-0.855,0.459-1.161c0.308-0.307,0.694-0.46,1.162-0.46c0.458,0,0.846,0.153,1.161,0.46
		c0.317,0.306,0.477,0.694,0.477,1.161V22.763z M140.572,35.035c0.758,0,1.471-0.145,2.136-0.436
		c0.666-0.291,1.243-0.687,1.738-1.186c0.494-0.499,0.883-1.078,1.169-1.738c0.286-0.661,0.43-1.365,0.43-2.114
		c0-0.748-0.144-1.452-0.43-2.112s-0.675-1.24-1.169-1.739c-0.495-0.499-1.072-0.894-1.738-1.186
		c-0.665-0.291-1.378-0.437-2.136-0.437c-0.77,0-1.487,0.146-2.152,0.437c-0.666,0.292-1.242,0.684-1.73,1.178
		c-0.489,0.493-0.877,1.073-1.162,1.738c-0.286,0.666-0.43,1.373-0.43,2.121c0,0.749,0.144,1.456,0.43,2.121
		c0.285,0.666,0.673,1.246,1.162,1.739c0.488,0.495,1.064,0.887,1.73,1.178C139.085,34.89,139.803,35.035,140.572,35.035z"/>
</g>
<path fill="#E76848" d="M26.3,30.478c0,1.59-1.289,2.879-2.88,2.879l0,0c-1.589,0-2.878-1.289-2.878-2.879V4.514
	c0-1.59,1.289-2.879,2.878-2.879l0,0c1.591,0,2.88,1.289,2.88,2.879V30.478z"/>
<path fill="#21B5DD" d="M19.117,41.27c0,1.59-1.288,2.879-2.88,2.879l0,0c-1.589,0-2.878-1.289-2.878-2.879V15.306
	c0-1.591,1.289-2.88,2.878-2.88l0,0c1.592,0,2.88,1.289,2.88,2.88V41.27z"/>
<path fill="#E76848" d="M11.936,35.874c0,1.59-1.289,2.879-2.881,2.879l0,0c-1.589,0-2.878-1.289-2.878-2.879V9.91
	c0-1.59,1.289-2.879,2.878-2.879l0,0c1.592,0,2.881,1.289,2.881,2.879V35.874z"/>
</svg>
