<?xml version="1.0" encoding="utf-8"?>
<!-- Generator: Adobe Illustrator 16.0.0, SVG Export Plug-In . SVG Version: 6.00 Build 0)  -->
<!DOCTYPE svg PUBLIC "-//W3C//DTD SVG 1.1//EN" "http://www.w3.org/Graphics/SVG/1.1/DTD/svg11.dtd">
<svg version="1.1" id="Layer_1" xmlns="http://www.w3.org/2000/svg" xmlns:xlink="http://www.w3.org/1999/xlink" x="0px" y="0px"
	 width="188px" height="174px" viewBox="0 0 188 174" enable-background="new 0 0 188 174" xml:space="preserve">
<symbol  id="Water_quality_management" viewBox="-49.898 -49.898 99.797 99.796">
	<g>
		
			<linearGradient id="SVGID_1_" gradientUnits="userSpaceOnUse" x1="-31701.625" y1="-51227.6406" x2="-31546.5996" y2="-51382.668" gradientTransform="matrix(0.1996 0 0 -0.1996 6311.9478 -10202.1719)">
			<stop  offset="0" style="stop-color:#DAF0F4"/>
			<stop  offset="0.9281" style="stop-color:#A3C6D7"/>
			<stop  offset="1" style="stop-color:#9FC3D6"/>
		</linearGradient>
		<path fill="url(#SVGID_1_)" d="M-24.896,39.034c0.367-0.25,1.914-1.239,3.901-1.243c2.087-0.006,3.799,0.991,4.196,1.238
			c0.392-0.247,2.062-1.244,3.831-1.238c1.955,0.004,3.803,1.006,4.211,1.24c0.383-0.254,1.97-1.246,3.909-1.24
			c2,0.004,3.753,0.991,4.162,1.236c0.38-0.267,1.852-1.205,3.854-1.236c2.162-0.03,3.752,0.96,4.156,1.232
			c0.401-0.256,1.973-1.201,3.81-1.232c1.732-0.026,3.766,1.023,4.181,1.243c0.365-0.233,1.943-1.179,3.852-1.243
			c1.928-0.073,3.818,0.977,4.254,1.232c0.373-0.281,1.734-1.191,3.921-1.232c1.406-0.029,2.474,0.36,3.196,0.724
			c-8.391,6.659-18.997,10.648-30.544,10.648c-11.748,0-22.528-4.128-30.985-11.005c0.605-0.207,1.266-0.369,1.869-0.367
			C-27.433,37.797-25.315,38.824-24.896,39.034z"/>
		
			<linearGradient id="SVGID_2_" gradientUnits="userSpaceOnUse" x1="-31376.6797" y1="-51087.707" x2="-31869.2988" y2="-51087.707" gradientTransform="matrix(0.1996 0 0 -0.1996 6311.9478 -10202.1719)">
			<stop  offset="0" style="stop-color:#84B2CA"/>
			<stop  offset="0.7195" style="stop-color:#90B5A4"/>
			<stop  offset="1" style="stop-color:#95B694"/>
		</linearGradient>
		<path fill="url(#SVGID_2_)" stroke="#007198" stroke-width="1.38" d="M-49.163,0.001c0-27.146,22.012-49.164,49.158-49.164
			c27.158,0,49.168,22.019,49.168,49.164c0,15.61-7.282,29.509-18.625,38.514c-0.722-0.363-1.79-0.753-3.195-0.724
			c-2.188,0.042-3.549,0.952-3.921,1.232c-0.437-0.256-2.326-1.306-4.254-1.232c-1.909,0.064-3.488,1.01-3.853,1.243
			c-0.415-0.22-2.448-1.27-4.181-1.243c-1.838,0.031-3.409,0.977-3.81,1.232c-0.403-0.271-1.994-1.263-4.156-1.232
			c-2.003,0.031-3.474,0.97-3.854,1.236c-0.409-0.245-2.162-1.232-4.163-1.236c-1.938-0.006-3.526,0.986-3.909,1.241
			c-0.408-0.235-2.257-1.237-4.212-1.241c-1.77-0.006-3.439,0.991-3.831,1.239c-0.397-0.248-2.108-1.245-4.196-1.239
			c-1.988,0.004-3.535,0.993-3.901,1.243c-0.419-0.21-2.537-1.237-4.225-1.243c-0.603-0.002-1.264,0.161-1.869,0.367
			C-42.077,29.145-49.163,15.407-49.163,0.001z"/>
		<path fill="none" stroke="#000000" stroke-width="1.47" d="M49.164,0.001c0-27.146-22.01-49.164-49.168-49.164
			c-27.146,0-49.158,22.019-49.158,49.164c0,27.157,22.012,49.162,49.158,49.162C27.154,49.163,49.164,27.158,49.164,0.001z"/>
		
			<linearGradient id="SVGID_3_" gradientUnits="userSpaceOnUse" x1="-31724.4453" y1="-50866.3203" x2="-31525.7031" y2="-51065.0625" gradientTransform="matrix(0.1996 0 0 -0.1996 6311.9478 -10202.1719)">
			<stop  offset="0" style="stop-color:#DDCD9E"/>
			<stop  offset="1" style="stop-color:#F8F0B9"/>
		</linearGradient>
		<path fill="url(#SVGID_3_)" stroke="#000000" stroke-width="1.38" d="M-40.031-28.517c8.914-12.493,23.516-20.646,40.026-20.646
			c16.087,0,30.364,7.728,39.334,19.666C12.662-27.169-13.355-24.008-40.031-28.517z"/>
		<path fill="#FFFFFF" stroke="#000000" stroke-width="1.11" stroke-linejoin="round" d="M19.652,20.359
			c8.002,0,14.533-2.021,14.533-4.506s-6.531-4.508-14.533-4.508c-8.009,0-14.612,2.022-14.612,4.508S11.645,20.359,19.652,20.359z"
			/>
		<path stroke="#000000" stroke-width="1.11" stroke-linejoin="round" d="M8.535,18.729l11.273-2.953L8.535,12.9
			C8.535,12.9,0.92,15.775,8.535,18.729z"/>
		<path stroke="#000000" stroke-width="1.11" stroke-linejoin="round" d="M30.687,18.729l-11.347-2.953L30.687,12.9
			C30.687,12.9,38.304,15.775,30.687,18.729z"/>
		<polygon points="21.042,15.976 19.188,15.976 19.188,45.182 21.042,44.292 		"/>
		<path fill="#993720" d="M35.45,7.549c-1.35,0-2.458-1.102-2.458-2.45c0-1.359,1.108-2.448,2.458-2.448
			c1.362,0,2.456,1.089,2.456,2.448C37.906,6.448,36.812,7.549,35.45,7.549"/>
		<path fill="#993720" d="M35.45-15.109c-1.35,0-2.458-1.102-2.458-2.449c0-1.357,1.108-2.448,2.458-2.448
			c1.362,0,2.456,1.091,2.456,2.448C37.906-16.211,36.812-15.109,35.45-15.109"/>
		<path fill="#993720" d="M29.912-21.048c-1.366,0-2.458-1.102-2.458-2.449c0-1.357,1.093-2.449,2.458-2.449
			c1.35,0,2.456,1.092,2.456,2.449C32.368-22.149,31.262-21.048,29.912-21.048"/>
		<path fill="#993720" d="M15.8-19.607c-1.35,0-2.454-1.098-2.454-2.446c0-1.361,1.104-2.451,2.454-2.451
			c1.362,0,2.457,1.09,2.457,2.451C18.256-20.705,17.162-19.607,15.8-19.607"/>
		<path fill="#993720" d="M40.568-3.471c-1.348,0-2.452-1.104-2.452-2.453c0-1.358,1.104-2.449,2.452-2.449
			c1.368,0,2.458,1.091,2.458,2.449C43.026-4.574,41.935-3.471,40.568-3.471"/>
		<path fill="#993720" d="M24.816-13.575c-1.366,0-2.458-1.106-2.458-2.453c0-1.36,1.093-2.449,2.458-2.449
			c1.35,0,2.452,1.089,2.452,2.449C27.269-14.682,26.167-13.575,24.816-13.575"/>
		<path fill="#99CA3C" stroke="#006F3B" stroke-width="0.29" d="M-42.017,12.144c-1.358,0-2.458-1.103-2.458-2.451
			c0-1.355,1.099-2.45,2.458-2.45c1.358,0,2.457,1.095,2.457,2.45C-39.56,11.04-40.659,12.144-42.017,12.144"/>
		<path fill="#99CA3C" stroke="#006F3B" stroke-width="0.29" d="M-39.156-4.394c-1.352,0-2.457-1.098-2.457-2.45
			c0-1.351,1.105-2.448,2.457-2.448c1.356,0,2.456,1.098,2.456,2.448C-36.7-5.491-37.8-4.394-39.156-4.394"/>
		<path fill="#99CA3C" stroke="#006F3B" stroke-width="0.29" d="M-33.322,24.085c-1.35,0-2.458-1.104-2.458-2.45
			c0-1.355,1.107-2.45,2.458-2.45c1.358,0,2.455,1.095,2.455,2.45C-30.867,22.981-31.965,24.085-33.322,24.085"/>
		<path fill="#99CA3C" stroke="#006F3B" stroke-width="0.29" d="M-13.674,28.985c-1.349,0-2.454-1.102-2.454-2.451
			c0-1.36,1.105-2.449,2.454-2.449c1.36,0,2.456,1.089,2.456,2.449C-11.218,27.884-12.313,28.985-13.674,28.985"/>
		<path fill="#99CA3C" stroke="#006F3B" stroke-width="0.29" d="M-23.498,33.882c-1.352,0-2.458-1.101-2.458-2.448
			c0-1.354,1.105-2.448,2.458-2.448c1.356,0,2.455,1.095,2.455,2.448C-21.042,32.779-22.142,33.882-23.498,33.882"/>
		<path fill="#99CA3C" stroke="#006F3B" stroke-width="0.29" d="M-23.498,24.085c-1.352,0-2.458-1.104-2.458-2.45
			c0-1.355,1.105-2.45,2.458-2.45c1.356,0,2.455,1.095,2.455,2.45C-21.042,22.981-22.142,24.085-23.498,24.085"/>
		<path d="M-30.688,10.557c0,0.999,0.15,1.838,0.448,2.518c0.222,0.5,0.525,0.948,0.913,1.346c0.388,0.396,0.809,0.691,1.27,0.884
			c0.612,0.259,1.317,0.388,2.117,0.388c1.446,0,2.604-0.449,3.474-1.346c0.868-0.899,1.3-2.146,1.3-3.743
			c0-1.584-0.43-2.827-1.291-3.722c-0.862-0.894-2.015-1.342-3.457-1.342c-1.461,0-2.621,0.444-3.484,1.336
			C-30.258,7.766-30.688,8.993-30.688,10.557z M-28.639,10.624c0-1.116,0.256-1.959,0.769-2.535
			c0.513-0.574,1.163-0.862,1.952-0.862c0.792,0,1.438,0.286,1.945,0.856c0.507,0.57,0.759,1.426,0.759,2.566
			c0,1.125-0.248,1.968-0.738,2.522c-0.492,0.555-1.146,0.832-1.965,0.832c-0.815,0-1.472-0.279-1.973-0.841
			C-28.392,12.599-28.639,11.753-28.639,10.624z"/>
		<path d="M-16.979,4.479v-0.92h-3.466c0.038,0.347,0.15,0.675,0.336,0.986c0.189,0.313,0.561,0.726,1.116,1.241
			c0.446,0.416,0.718,0.697,0.821,0.845c0.135,0.203,0.203,0.405,0.203,0.607c0,0.221-0.06,0.39-0.178,0.508
			c-0.119,0.121-0.285,0.18-0.495,0.18s-0.375-0.064-0.499-0.19c-0.124-0.122-0.195-0.329-0.213-0.62l-0.991,0.099
			c0.058,0.544,0.244,0.938,0.556,1.177c0.311,0.236,0.699,0.355,1.165,0.355c0.513,0,0.915-0.139,1.206-0.413
			c0.295-0.272,0.438-0.615,0.438-1.022c0-0.232-0.042-0.455-0.125-0.665c-0.083-0.211-0.218-0.432-0.396-0.662
			c-0.119-0.152-0.337-0.372-0.651-0.659c-0.313-0.285-0.513-0.476-0.597-0.571c-0.083-0.093-0.15-0.183-0.202-0.274H-16.979
			L-16.979,4.479z"/>
		<path d="M-21.434-40.439v9.71h1.895l3.997-6.53v6.53h1.81v-9.71h-1.957l-3.938,6.388v-6.388H-21.434z"/>
		<path d="M-12.057-35.644c0,0.993,0.147,1.821,0.445,2.494c0.222,0.499,0.523,0.941,0.906,1.336
			c0.384,0.396,0.805,0.687,1.258,0.876c0.607,0.257,1.309,0.387,2.1,0.387c1.434,0,2.582-0.447,3.441-1.335
			c0.864-0.889,1.292-2.128,1.292-3.712c0-1.571-0.426-2.802-1.281-3.693c-0.857-0.885-1.997-1.329-3.426-1.329
			c-1.448,0-2.599,0.444-3.454,1.324C-11.63-38.413-12.057-37.193-12.057-35.644z M-10.027-35.579c0-1.102,0.254-1.939,0.766-2.514
			c0.509-0.566,1.155-0.854,1.934-0.854c0.786,0,1.428,0.283,1.93,0.85c0.501,0.566,0.751,1.416,0.751,2.543
			c0,1.119-0.242,1.953-0.732,2.501c-0.491,0.553-1.137,0.827-1.949,0.827c-0.808,0-1.458-0.276-1.956-0.836
			C-9.776-33.616-10.027-34.459-10.027-35.579z"/>
		<path d="M-1.81-41.234l0.949,0.115c0.031-0.245,0.111-0.43,0.244-0.559c0.131-0.127,0.292-0.193,0.48-0.193
			c0.201,0,0.371,0.08,0.509,0.235c0.138,0.154,0.205,0.365,0.205,0.626c0,0.252-0.065,0.447-0.196,0.595
			c-0.134,0.145-0.295,0.217-0.482,0.217c-0.125,0-0.274-0.022-0.449-0.072l0.109,0.788c0.265-0.004,0.469,0.054,0.606,0.177
			c0.145,0.118,0.212,0.281,0.212,0.487c0,0.173-0.052,0.308-0.154,0.411c-0.102,0.102-0.238,0.155-0.407,0.155
			c-0.167,0-0.311-0.058-0.428-0.173c-0.12-0.119-0.192-0.286-0.215-0.509l-0.906,0.151c0.063,0.313,0.159,0.558,0.284,0.747
			c0.126,0.185,0.303,0.333,0.53,0.438c0.229,0.106,0.479,0.161,0.762,0.161c0.48,0,0.865-0.155,1.155-0.466
			c0.239-0.253,0.362-0.536,0.362-0.852c0-0.451-0.246-0.813-0.736-1.079c0.29-0.062,0.522-0.204,0.699-0.424
			c0.171-0.22,0.257-0.486,0.257-0.798c0-0.451-0.164-0.837-0.491-1.153c-0.327-0.319-0.734-0.479-1.222-0.479
			c-0.462,0-0.845,0.134-1.148,0.401C-1.583-42.018-1.762-41.668-1.81-41.234z"/>
		<path d="M-1.205-33.721v1.272h2.5v-1.272H-1.205z"/>
		<path fill="none" stroke="#000000" stroke-width="1.05" stroke-linecap="round" d="M-4.013-22.298c0,0,11.202-20.651,26.252-1.051
			"/>
		<polygon points="24.179,-25.997 25,-19.769 19.195,-22.17 		"/>
		<line fill="none" stroke="#000000" stroke-width="1.05" x1="-22.564" y1="1.153" x2="4.387" y2="1.153"/>
		<polygon points="3.467,-1.998 8.91,1.144 3.467,4.284 		"/>
		<line fill="none" stroke="#000000" stroke-width="1.05" x1="-0.861" y1="-3.748" x2="-27.815" y2="-3.748"/>
		<polygon points="-26.896,-0.598 -32.337,-3.739 -26.896,-6.88 		"/>
	</g>
</symbol>
<use xlink:href="#Water_quality_management"  width="99.797" height="99.796" x="-49.898" y="-49.898" transform="matrix(1.6709 0 0 -1.6709 99.6318 88.8101)" overflow="visible"/>
</svg>
