<?xml version="1.0" encoding="utf-8"?>
<!-- Generator: Adobe Illustrator 16.0.0, SVG Export Plug-In . SVG Version: 6.00 Build 0)  -->
<!DOCTYPE svg PUBLIC "-//W3C//DTD SVG 1.1//EN" "http://www.w3.org/Graphics/SVG/1.1/DTD/svg11.dtd">
<svg version="1.1" id="Layer_1" xmlns="http://www.w3.org/2000/svg" xmlns:xlink="http://www.w3.org/1999/xlink" x="0px" y="0px"
	 width="96.666px" height="48px" viewBox="0 0 96.666 48" enable-background="new 0 0 96.666 48" xml:space="preserve">
<g>
	<path fill="#21B5DD" d="M14.309,34.088c-2.09,0-3.914-0.639-5.475-1.918v7.781c0,0.468-0.156,0.855-0.475,1.162
		c-0.317,0.307-0.705,0.46-1.161,0.46c-0.469,0-0.854-0.153-1.161-0.46c-0.309-0.307-0.462-0.694-0.462-1.162V25.356
		c0-2.412,0.853-4.469,2.559-6.175c1.703-1.705,3.764-2.558,6.175-2.558c2.392,0,4.448,0.853,6.174,2.558
		c0.853,0.842,1.491,1.78,1.92,2.814c0.427,1.035,0.639,2.155,0.639,3.36c0,2.433-0.853,4.492-2.559,6.175
		c-0.872,0.863-1.822,1.504-2.844,1.926C16.613,33.878,15.504,34.088,14.309,34.088z M8.834,25.356c0,0.749,0.145,1.456,0.431,2.121
		c0.284,0.666,0.672,1.246,1.161,1.739c0.488,0.495,1.064,0.887,1.73,1.178c0.665,0.291,1.384,0.436,2.152,0.436
		c0.758,0,1.472-0.145,2.138-0.436c0.664-0.291,1.243-0.687,1.737-1.186c0.493-0.499,0.884-1.078,1.169-1.738
		c0.285-0.661,0.43-1.365,0.43-2.114c0-0.748-0.145-1.452-0.43-2.112s-0.676-1.24-1.169-1.739c-0.494-0.499-1.073-0.894-1.737-1.186
		c-0.666-0.291-1.38-0.437-2.138-0.437c-0.769,0-1.487,0.146-2.152,0.437c-0.666,0.292-1.242,0.684-1.73,1.178
		c-0.489,0.493-0.877,1.073-1.161,1.738C8.979,23.9,8.834,24.608,8.834,25.356z"/>
	<path fill="#21B5DD" d="M29.892,13.521c0,0.531-0.188,0.982-0.563,1.356c-0.373,0.375-0.826,0.562-1.355,0.562
		c-0.531,0-0.982-0.187-1.357-0.562c-0.374-0.375-0.563-0.826-0.563-1.356c0-0.53,0.188-0.982,0.563-1.356
		c0.375-0.375,0.826-0.562,1.357-0.562c0.529,0,0.982,0.188,1.355,0.562C29.703,12.538,29.892,12.99,29.892,13.521z M26.352,32.451
		v-14.19c0-0.457,0.159-0.844,0.475-1.162c0.317-0.316,0.699-0.476,1.147-0.476c0.445,0,0.828,0.159,1.146,0.476
		c0.315,0.317,0.479,0.705,0.491,1.162v14.19c-0.012,0.458-0.176,0.845-0.491,1.162c-0.317,0.317-0.7,0.476-1.146,0.476
		c-0.448,0-0.83-0.158-1.147-0.476C26.511,33.296,26.352,32.909,26.352,32.451z"/>
	<path fill="#E76848" d="M36.801,18.229c1.382-1.07,3.011-1.606,4.881-1.606c1.091,0,2.129,0.214,3.112,0.64
		c0.979,0.427,1.846,1.006,2.595,1.739c0.748,0.733,1.34,1.596,1.777,2.588c0.436,0.993,0.655,2.051,0.655,3.173v7.688
		c0,0.458-0.158,0.845-0.477,1.162c-0.317,0.317-0.698,0.476-1.145,0.476c-0.459,0-0.845-0.158-1.163-0.476
		c-0.317-0.317-0.476-0.704-0.476-1.162v-7.688c0-0.666-0.129-1.294-0.39-1.887c-0.26-0.593-0.61-1.11-1.052-1.552
		c-0.442-0.441-0.96-0.792-1.552-1.052c-0.594-0.259-1.221-0.39-1.887-0.39c-0.677,0-1.309,0.128-1.896,0.383
		c-0.586,0.254-1.104,0.604-1.55,1.051c-0.449,0.448-0.799,0.967-1.055,1.56c-0.254,0.592-0.381,1.221-0.381,1.887v7.688
		c0,0.458-0.159,0.845-0.476,1.162c-0.316,0.317-0.699,0.476-1.146,0.476c-0.458,0-0.846-0.158-1.163-0.476
		c-0.315-0.317-0.475-0.704-0.475-1.162v-14.19c0-0.446,0.159-0.831,0.475-1.153c0.317-0.322,0.705-0.484,1.163-0.484
		c0.446,0,0.829,0.162,1.146,0.484S36.801,17.804,36.801,18.229z"/>
	<path fill="#E76848" d="M66.745,32.467v-0.312c-0.782,0.624-1.627,1.102-2.543,1.435c-0.916,0.333-1.894,0.499-2.932,0.499
		c-2.411,0-4.472-0.853-6.176-2.557c-1.705-1.705-2.559-3.763-2.559-6.175c0-2.412,0.854-4.469,2.559-6.175
		c1.704-1.705,3.765-2.558,6.176-2.558c2.392,0,4.449,0.853,6.175,2.558c1.703,1.706,2.559,3.763,2.559,6.175v7.111
		c0,0.447-0.162,0.829-0.477,1.146c-0.318,0.317-0.7,0.476-1.147,0.476c-0.456,0-0.845-0.158-1.16-0.476
		C66.901,33.296,66.745,32.914,66.745,32.467z M61.271,19.882c-0.769,0-1.485,0.146-2.15,0.437
		c-0.666,0.292-1.245,0.684-1.732,1.178c-0.49,0.493-0.876,1.073-1.16,1.738c-0.287,0.666-0.432,1.373-0.432,2.121
		c0,0.749,0.145,1.456,0.432,2.121c0.284,0.666,0.67,1.246,1.16,1.739c0.487,0.495,1.066,0.887,1.732,1.178
		c0.665,0.291,1.382,0.436,2.15,0.436c0.758,0,1.472-0.145,2.137-0.436s1.245-0.687,1.739-1.186
		c0.492-0.499,0.881-1.078,1.166-1.738c0.287-0.661,0.433-1.365,0.433-2.114c0-0.748-0.146-1.452-0.433-2.112
		c-0.285-0.66-0.674-1.24-1.166-1.739c-0.494-0.499-1.074-0.894-1.739-1.186C62.742,20.028,62.028,19.882,61.271,19.882z"/>
	<path fill="#E76848" d="M76.247,18.558c1.55-1.289,3.374-1.934,5.475-1.934c2.389,0,4.448,0.853,6.174,2.558
		c0.853,0.842,1.491,1.78,1.918,2.814c0.426,1.035,0.64,2.155,0.64,3.36c0,2.433-0.854,4.492-2.558,6.175
		c-1.726,1.705-3.785,2.557-6.174,2.557c-2.412,0-4.471-0.853-6.177-2.557c-1.705-1.705-2.557-3.763-2.557-6.175V10.76
		c0-0.467,0.153-0.855,0.459-1.161c0.308-0.307,0.694-0.46,1.162-0.46c0.458,0,0.846,0.153,1.161,0.46
		c0.317,0.306,0.477,0.694,0.477,1.161V18.558z M81.722,30.829c0.758,0,1.471-0.145,2.136-0.436
		c0.666-0.291,1.243-0.687,1.738-1.186c0.494-0.499,0.883-1.078,1.169-1.738c0.286-0.661,0.43-1.365,0.43-2.114
		c0-0.748-0.144-1.452-0.43-2.112s-0.675-1.24-1.169-1.739c-0.495-0.499-1.072-0.894-1.738-1.186
		c-0.665-0.291-1.378-0.437-2.136-0.437c-0.77,0-1.487,0.146-2.152,0.437c-0.666,0.292-1.242,0.684-1.73,1.178
		c-0.489,0.493-0.877,1.073-1.162,1.738c-0.286,0.666-0.43,1.373-0.43,2.121c0,0.749,0.144,1.456,0.43,2.121
		c0.285,0.666,0.673,1.246,1.162,1.739c0.488,0.495,1.064,0.887,1.73,1.178C80.234,30.684,80.952,30.829,81.722,30.829z"/>
</g>
</svg>
